<svg width="485" height="90" viewBox="0 0 485 90" fill="none" xmlns="http://www.w3.org/2000/svg">
<path d="M107.609 77.8588V13.5742H133.348C138.077 13.5742 142.022 14.2752 145.181 15.6773C148.341 17.0793 150.716 19.0254 152.307 21.5156C153.897 23.9849 154.692 26.8308 154.692 30.0534C154.692 32.5645 154.19 34.7722 153.186 36.6765C152.181 38.5598 150.8 40.1083 149.042 41.3221C147.305 42.5148 145.317 43.3623 143.078 43.8646V44.4923C145.527 44.597 147.818 45.2875 149.953 46.564C152.108 47.8405 153.855 49.6297 155.195 51.9315C156.534 54.2124 157.203 56.9328 157.203 60.0926C157.203 63.5036 156.356 66.5483 154.661 69.2268C152.987 71.8844 150.507 73.9875 147.222 75.536C143.936 77.0845 139.887 77.8588 135.074 77.8588H107.609ZM121.2 66.7471H132.281C136.068 66.7471 138.83 66.0252 140.567 64.5813C142.304 63.1165 143.173 61.1703 143.173 58.7429C143.173 56.9642 142.744 55.3948 141.886 54.0346C141.028 52.6744 139.803 51.6072 138.213 50.8329C136.644 50.0586 134.771 49.6715 132.594 49.6715H121.2V66.7471ZM121.2 40.4746H131.276C133.139 40.4746 134.792 40.1502 136.236 39.5015C137.7 38.8319 138.851 37.8902 139.688 36.6765C140.546 35.4628 140.975 34.0084 140.975 32.3134C140.975 29.9906 140.149 28.1178 138.496 26.6948C136.863 25.2718 134.541 24.5603 131.527 24.5603H121.2V40.4746Z" fill="black"/>
<path d="M190.527 57.3304V29.6454H203.899V77.8588H191.06V69.1013H190.558C189.47 71.9263 187.66 74.1968 185.128 75.9127C182.617 77.6286 179.551 78.4866 175.931 78.4866C172.708 78.4866 169.873 77.7542 167.425 76.2893C164.976 74.8245 163.062 72.7424 161.68 70.0429C160.32 67.3435 159.63 64.1104 159.609 60.3438V29.6454H172.98V57.9582C173.001 60.8041 173.765 63.0537 175.272 64.7068C176.779 66.36 178.798 67.1865 181.33 67.1865C182.941 67.1865 184.448 66.8203 185.85 66.0879C187.252 65.3346 188.382 64.2255 189.24 62.7607C190.119 61.2959 190.548 59.4858 190.527 57.3304Z" fill="black"/>
<path d="M230.379 78.8005C225.42 78.8005 221.151 77.796 217.573 75.7871C214.015 73.7573 211.274 70.8904 209.349 67.1865C207.423 63.4617 206.461 59.0568 206.461 53.9718C206.461 49.0123 207.423 44.6597 209.349 40.914C211.274 37.1682 213.984 34.2491 217.478 32.1565C220.994 30.0639 225.116 29.0176 229.846 29.0176C233.026 29.0176 235.987 29.5303 238.729 30.5556C241.491 31.5601 243.897 33.0772 245.948 35.107C248.02 37.1369 249.631 39.6898 250.782 42.7659C251.933 45.8211 252.508 49.3995 252.508 53.501V57.1735H211.797V48.8868H239.921C239.921 46.9616 239.503 45.2561 238.666 43.7704C237.829 42.2846 236.667 41.1233 235.182 40.2862C233.717 39.4283 232.011 38.9993 230.065 38.9993C228.036 38.9993 226.236 39.4701 224.666 40.4118C223.118 41.3325 221.904 42.5776 221.025 44.1471C220.146 45.6956 219.697 47.422 219.676 49.3262V57.2049C219.676 59.5904 220.115 61.6516 220.994 63.3885C221.894 65.1253 223.16 66.4646 224.792 67.4063C226.424 68.3479 228.36 68.8188 230.599 68.8188C232.085 68.8188 233.445 68.6095 234.68 68.191C235.914 67.7725 236.971 67.1447 237.85 66.3077C238.729 65.4706 239.398 64.4452 239.859 63.2315L252.226 64.0477C251.598 67.0191 250.311 69.614 248.365 71.8321C246.44 74.0293 243.95 75.7453 240.895 76.9799C237.86 78.1936 234.355 78.8005 230.379 78.8005Z" fill="black"/>
<path d="M268.419 49.9854V77.8588H255.047V29.6454H267.791V38.1518H268.356C269.423 35.3477 271.212 33.1295 273.724 31.4973C276.235 29.8442 279.279 29.0176 282.858 29.0176C286.206 29.0176 289.125 29.75 291.615 31.2148C294.105 32.6796 296.041 34.7722 297.422 37.4926C298.803 40.192 299.494 43.4146 299.494 47.1604V77.8588H286.122V49.546C286.143 46.5954 285.39 44.2935 283.862 42.6404C282.335 40.9663 280.232 40.1293 277.553 40.1293C275.753 40.1293 274.163 40.5164 272.782 41.2907C271.422 42.0649 270.355 43.1949 269.58 44.6807C268.827 46.1455 268.44 47.9137 268.419 49.9854Z" fill="black"/>
<path d="M325.629 78.8005C320.754 78.8005 316.537 77.7646 312.98 75.693C309.443 73.6004 306.712 70.6917 304.787 66.9668C302.862 63.2211 301.899 58.8789 301.899 53.9404C301.899 48.96 302.862 44.6074 304.787 40.8826C306.712 37.1369 309.443 34.2281 312.98 32.1565C316.537 30.0639 320.754 29.0176 325.629 29.0176C330.505 29.0176 334.711 30.0639 338.248 32.1565C341.805 34.2281 344.546 37.1369 346.472 40.8826C348.397 44.6074 349.359 48.96 349.359 53.9404C349.359 58.8789 348.397 63.2211 346.472 66.9668C344.546 70.6917 341.805 73.6004 338.248 75.693C334.711 77.7646 330.505 78.8005 325.629 78.8005ZM325.692 68.4421C327.91 68.4421 329.762 67.8143 331.248 66.5588C332.734 65.2823 333.853 63.5454 334.607 61.3482C335.381 59.151 335.768 56.6503 335.768 53.8462C335.768 51.0422 335.381 48.5415 334.607 46.3443C333.853 44.1471 332.734 42.4102 331.248 41.1337C329.762 39.8572 327.91 39.219 325.692 39.219C323.453 39.219 321.57 39.8572 320.042 41.1337C318.535 42.4102 317.395 44.1471 316.621 46.3443C315.867 48.5415 315.491 51.0422 315.491 53.8462C315.491 56.6503 315.867 59.151 316.621 61.3482C317.395 63.5454 318.535 65.2823 320.042 66.5588C321.57 67.8143 323.453 68.4421 325.692 68.4421Z" fill="black"/>
<path d="M391.982 43.3937L379.74 44.1471C379.531 43.1008 379.081 42.1591 378.39 41.3221C377.7 40.4641 376.789 39.784 375.659 39.2818C374.55 38.7586 373.222 38.497 371.673 38.497C369.601 38.497 367.854 38.9365 366.431 39.8154C365.008 40.6733 364.297 41.8243 364.297 43.2682C364.297 44.4191 364.757 45.3922 365.678 46.1873C366.599 46.9825 368.178 47.6208 370.418 48.1021L379.144 49.8598C383.831 50.8224 387.326 52.371 389.628 54.5054C391.929 56.6399 393.08 59.4439 393.08 62.9176C393.08 66.0775 392.149 68.8502 390.287 71.2357C388.445 73.6213 385.913 75.4837 382.691 76.823C379.489 78.1413 375.796 78.8005 371.61 78.8005C365.228 78.8005 360.143 77.4717 356.355 74.8141C352.589 72.1355 350.381 68.4944 349.732 63.8907L362.884 63.2002C363.282 65.1463 364.244 66.632 365.772 67.6574C367.3 68.6618 369.256 69.164 371.642 69.164C373.985 69.164 375.869 68.7141 377.292 67.8143C378.736 66.8936 379.468 65.7113 379.489 64.2674C379.468 63.0537 378.955 62.0597 377.951 61.2854C376.946 60.4902 375.398 59.8834 373.305 59.4649L364.956 57.8012C360.248 56.8596 356.742 55.2274 354.441 52.9046C352.16 50.5818 351.019 47.6208 351.019 44.0215C351.019 40.9245 351.856 38.2564 353.53 36.0173C355.225 33.7782 357.6 32.0518 360.656 30.8381C363.732 29.6244 367.331 29.0176 371.453 29.0176C377.543 29.0176 382.335 30.3045 385.83 32.8784C389.345 35.4523 391.396 38.9574 391.982 43.3937Z" fill="black"/>
<path d="M420.915 77.8588H406.35L428.542 13.5742H446.057L468.218 77.8588H453.654L437.551 28.2642H437.049L420.915 77.8588ZM420.005 52.5907H454.407V63.2002H420.005V52.5907Z" fill="black"/>
<path d="M477.333 78.6749C475.261 78.6749 473.482 77.9425 471.997 76.4777C470.532 74.9919 469.799 73.2132 469.799 71.1416C469.799 69.0908 470.532 67.333 471.997 65.8682C473.482 64.4034 475.261 63.671 477.333 63.671C479.342 63.671 481.099 64.4034 482.606 65.8682C484.113 67.333 484.866 69.0908 484.866 71.1416C484.866 72.5227 484.51 73.7887 483.799 74.9396C483.108 76.0696 482.198 76.9799 481.068 77.6705C479.938 78.3401 478.693 78.6749 477.333 78.6749Z" fill="black"/>
<path fill-rule="evenodd" clip-rule="evenodd" d="M0 0V90H47.2386C53.9768 90 59.6458 88.916 64.2454 86.748C68.845 84.5801 72.3167 81.6357 74.6604 77.915C77.0335 74.165 78.22 69.9023 78.22 65.127C78.22 60.7031 77.2825 56.8945 75.4075 53.7012C73.5325 50.4785 71.0862 47.9736 68.0686 46.1865C65.0804 44.3994 61.8724 43.4326 58.4446 43.2861V42.4072C61.5794 41.7041 64.3626 40.5176 66.7942 38.8477C69.2552 37.1484 71.1888 34.9805 72.595 32.3438C74.0013 29.6777 74.7044 26.5869 74.7044 23.0713C74.7044 18.5596 73.5911 14.5752 71.3645 11.1182C69.138 7.63184 65.8128 4.90723 61.389 2.94434C56.9651 0.981445 51.4427 0 44.8216 0H0ZM61.7501 66.5679C61.7501 63.8112 60.1664 61.2997 57.679 60.1115L25.1069 44.5527V44.0078L57.6733 28.4819C60.1639 27.2945 61.7501 24.7811 61.7501 22.022C61.7501 16.7743 56.2894 13.3112 51.5425 15.5484L10.7392 34.7793L10.7392 53.7812L51.5409 73.0386C56.2872 75.2787 61.7501 71.8163 61.7501 66.5679Z" fill="black"/>
</svg>
