<svg width="50" height="50" viewBox="0 0 50 50" fill="none" xmlns="http://www.w3.org/2000/svg">
<path d="M14.6875 32.3398H13.2461L13.2383 31.7344H14.5469C14.763 31.7344 14.9518 31.6979 15.1133 31.625C15.2747 31.5521 15.3997 31.4479 15.4883 31.3125C15.5794 31.1745 15.625 31.0104 15.625 30.8203C15.625 30.612 15.5846 30.4427 15.5039 30.3125C15.4258 30.1797 15.3047 30.0833 15.1406 30.0234C14.9792 29.9609 14.7734 29.9297 14.5234 29.9297H13.4141V35H12.6602V29.3125H14.5234C14.8151 29.3125 15.0755 29.3424 15.3047 29.4023C15.5339 29.4596 15.7279 29.5508 15.8867 29.6758C16.0482 29.7982 16.1706 29.9544 16.2539 30.1445C16.3372 30.3346 16.3789 30.5625 16.3789 30.8281C16.3789 31.0625 16.319 31.2747 16.1992 31.4648C16.0794 31.6523 15.9128 31.806 15.6992 31.9258C15.4883 32.0456 15.2409 32.1224 14.957 32.1562L14.6875 32.3398ZM14.6523 35H12.9492L13.375 34.3867H14.6523C14.8919 34.3867 15.0951 34.3451 15.2617 34.2617C15.431 34.1784 15.5599 34.0612 15.6484 33.9102C15.737 33.7565 15.7812 33.5755 15.7812 33.3672C15.7812 33.1562 15.7435 32.974 15.668 32.8203C15.5924 32.6667 15.474 32.5482 15.3125 32.4648C15.151 32.3815 14.9427 32.3398 14.6875 32.3398H13.6133L13.6211 31.7344H15.0898L15.25 31.9531C15.5234 31.9766 15.7552 32.0547 15.9453 32.1875C16.1354 32.3177 16.2799 32.4844 16.3789 32.6875C16.4805 32.8906 16.5312 33.1146 16.5312 33.3594C16.5312 33.7135 16.4531 34.013 16.2969 34.2578C16.1432 34.5 15.9258 34.6849 15.6445 34.8125C15.3633 34.9375 15.0326 35 14.6523 35ZM18.3203 30.7734V35H17.5938V30.7734H18.3203ZM17.5391 29.6523C17.5391 29.5352 17.5742 29.4362 17.6445 29.3555C17.7174 29.2747 17.8242 29.2344 17.9648 29.2344C18.1029 29.2344 18.2083 29.2747 18.2812 29.3555C18.3568 29.4362 18.3945 29.5352 18.3945 29.6523C18.3945 29.7643 18.3568 29.8607 18.2812 29.9414C18.2083 30.0195 18.1029 30.0586 17.9648 30.0586C17.8242 30.0586 17.7174 30.0195 17.6445 29.9414C17.5742 29.8607 17.5391 29.7643 17.5391 29.6523ZM21.25 30.7734V31.3281H18.9648V30.7734H21.25ZM19.7383 29.7461H20.4609V33.9531C20.4609 34.0964 20.4831 34.2044 20.5273 34.2773C20.5716 34.3503 20.6289 34.3984 20.6992 34.4219C20.7695 34.4453 20.8451 34.457 20.9258 34.457C20.9857 34.457 21.0482 34.4518 21.1133 34.4414C21.181 34.4284 21.2318 34.418 21.2656 34.4102L21.2695 35C21.2122 35.0182 21.1367 35.0352 21.043 35.0508C20.9518 35.069 20.8411 35.0781 20.7109 35.0781C20.5339 35.0781 20.3711 35.043 20.2227 34.9727C20.0742 34.9023 19.9557 34.7852 19.8672 34.6211C19.7812 34.4544 19.7383 34.2305 19.7383 33.9492V29.7461ZM24.3086 29.3125V35H23.5664V29.3125H24.3086ZM26.1367 29.3125V29.9297H21.7422V29.3125H26.1367ZM28.2344 35.0781C27.9401 35.0781 27.6732 35.0286 27.4336 34.9297C27.1966 34.8281 26.9922 34.6862 26.8203 34.5039C26.651 34.3216 26.5208 34.1055 26.4297 33.8555C26.3385 33.6055 26.293 33.332 26.293 33.0352V32.8711C26.293 32.5273 26.3438 32.2214 26.4453 31.9531C26.5469 31.6823 26.6849 31.4531 26.8594 31.2656C27.0339 31.0781 27.2318 30.9362 27.4531 30.8398C27.6745 30.7435 27.9036 30.6953 28.1406 30.6953C28.4427 30.6953 28.7031 30.7474 28.9219 30.8516C29.1432 30.9557 29.3242 31.1016 29.4648 31.2891C29.6055 31.474 29.7096 31.6927 29.7773 31.9453C29.8451 32.1953 29.8789 32.4688 29.8789 32.7656V33.0898H26.7227V32.5H29.1562V32.4453C29.1458 32.2578 29.1068 32.0755 29.0391 31.8984C28.974 31.7214 28.8698 31.5755 28.7266 31.4609C28.5833 31.3464 28.388 31.2891 28.1406 31.2891C27.9766 31.2891 27.8255 31.3242 27.6875 31.3945C27.5495 31.4622 27.431 31.5638 27.332 31.6992C27.2331 31.8346 27.1562 32 27.1016 32.1953C27.0469 32.3906 27.0195 32.6159 27.0195 32.8711V33.0352C27.0195 33.2357 27.0469 33.4245 27.1016 33.6016C27.1589 33.776 27.2409 33.9297 27.3477 34.0625C27.457 34.1953 27.5885 34.2995 27.7422 34.375C27.8984 34.4505 28.0755 34.4883 28.2734 34.4883C28.5286 34.4883 28.7448 34.4362 28.9219 34.332C29.099 34.2279 29.2539 34.0885 29.3867 33.9141L29.8242 34.2617C29.7331 34.3997 29.6172 34.5312 29.4766 34.6562C29.3359 34.7812 29.1628 34.8828 28.957 34.9609C28.7539 35.0391 28.513 35.0781 28.2344 35.0781ZM32.4141 34.4844C32.5859 34.4844 32.7448 34.4492 32.8906 34.3789C33.0365 34.3086 33.1562 34.2122 33.25 34.0898C33.3438 33.9648 33.3971 33.8229 33.4102 33.6641H34.0977C34.0846 33.9141 34 34.1471 33.8438 34.3633C33.6901 34.5768 33.4883 34.75 33.2383 34.8828C32.9883 35.013 32.7135 35.0781 32.4141 35.0781C32.0964 35.0781 31.819 35.0221 31.582 34.9102C31.3477 34.7982 31.1523 34.6445 30.9961 34.4492C30.8424 34.2539 30.7266 34.0299 30.6484 33.7773C30.5729 33.5221 30.5352 33.2526 30.5352 32.9688V32.8047C30.5352 32.5208 30.5729 32.2526 30.6484 32C30.7266 31.7448 30.8424 31.5195 30.9961 31.3242C31.1523 31.1289 31.3477 30.9753 31.582 30.8633C31.819 30.7513 32.0964 30.6953 32.4141 30.6953C32.7448 30.6953 33.0339 30.763 33.2812 30.8984C33.5286 31.0312 33.7227 31.2135 33.8633 31.4453C34.0065 31.6745 34.0846 31.9349 34.0977 32.2266H33.4102C33.3971 32.0521 33.3477 31.8945 33.2617 31.7539C33.1784 31.6133 33.0638 31.5013 32.918 31.418C32.7747 31.332 32.6068 31.2891 32.4141 31.2891C32.1927 31.2891 32.0065 31.3333 31.8555 31.4219C31.707 31.5078 31.5885 31.625 31.5 31.7734C31.4141 31.9193 31.3516 32.082 31.3125 32.2617C31.276 32.4388 31.2578 32.6198 31.2578 32.8047V32.9688C31.2578 33.1536 31.276 33.3359 31.3125 33.5156C31.349 33.6953 31.4102 33.8581 31.4961 34.0039C31.5846 34.1497 31.7031 34.2669 31.8516 34.3555C32.0026 34.4414 32.1901 34.4844 32.4141 34.4844ZM35.6328 29V35H34.9102V29H35.6328ZM35.4609 32.7266L35.1602 32.7148C35.1628 32.4258 35.2057 32.1589 35.2891 31.9141C35.3724 31.6667 35.4896 31.4518 35.6406 31.2695C35.7917 31.0872 35.9714 30.9466 36.1797 30.8477C36.3906 30.7461 36.6237 30.6953 36.8789 30.6953C37.0872 30.6953 37.2747 30.724 37.4414 30.7812C37.6081 30.8359 37.75 30.9245 37.8672 31.0469C37.987 31.1693 38.0781 31.3281 38.1406 31.5234C38.2031 31.7161 38.2344 31.9518 38.2344 32.2305V35H37.5078V32.2227C37.5078 32.0013 37.4753 31.8242 37.4102 31.6914C37.3451 31.556 37.25 31.4583 37.125 31.3984C37 31.3359 36.8464 31.3047 36.6641 31.3047C36.4844 31.3047 36.3203 31.3424 36.1719 31.418C36.026 31.4935 35.8997 31.5977 35.793 31.7305C35.6888 31.8633 35.6068 32.0156 35.5469 32.1875C35.4896 32.3568 35.4609 32.5365 35.4609 32.7266Z" fill="white"/>
<rect x="17" y="18" width="5" height="10" fill="#D9D9D9"/>
<rect x="23" y="21" width="5" height="7" fill="#D9D9D9"/>
<rect x="29" y="13" width="5" height="15" fill="#D9D9D9"/>
</svg>
